<?xml version="1.0" standalone="no"?>
<!DOCTYPE svg PUBLIC "-//W3C//DTD SVG 20010904//EN"
 "http://www.w3.org/TR/2001/REC-SVG-20010904/DTD/svg10.dtd">
<svg version="1.0" xmlns="http://www.w3.org/2000/svg"
 width="1448.000000pt" height="488.000000pt" viewBox="0 0 1448.000000 488.000000"
 preserveAspectRatio="xMidYMid meet">
<metadata>
Created by potrace 1.15, written by Peter Selinger 2001-2017
</metadata>
<g transform="translate(0.000000,488.000000) scale(0.100000,-0.100000)"
fill="#000000" stroke="none">
<path d="M5707 4874 c-3 -4 -109 -11 -234 -16 -125 -5 -273 -13 -328 -17 -201
-17 -327 -31 -337 -37 -6 -4 -45 -11 -87 -16 -129 -16 -281 -42 -336 -58 -44
-13 -119 -28 -180 -37 -22 -3 -44 -9 -50 -14 -5 -5 -20 -9 -35 -9 -14 0 -56
-9 -95 -20 -38 -11 -83 -23 -100 -26 -16 -3 -39 -9 -50 -14 -11 -5 -31 -11
-45 -14 -56 -11 -99 -24 -130 -40 -18 -9 -43 -16 -56 -16 -13 0 -26 -4 -29
-10 -3 -5 -15 -10 -26 -10 -10 0 -27 -4 -37 -9 -9 -5 -37 -14 -62 -21 -25 -7
-56 -18 -70 -25 -14 -7 -59 -23 -100 -35 -41 -13 -79 -26 -85 -30 -5 -4 -37
-17 -70 -29 -75 -29 -105 -41 -127 -52 -10 -5 -23 -9 -30 -9 -7 0 -24 -9 -38
-20 -14 -11 -31 -20 -39 -20 -8 0 -48 -16 -90 -36 -42 -19 -96 -45 -121 -56
-25 -11 -63 -30 -85 -41 -90 -46 -173 -89 -225 -117 -30 -17 -58 -30 -63 -30
-5 0 -21 -9 -36 -19 -15 -11 -54 -34 -86 -52 -33 -18 -73 -42 -90 -54 -16 -12
-52 -32 -80 -46 -27 -13 -72 -41 -100 -61 -27 -21 -55 -38 -61 -38 -6 0 -19
-9 -29 -20 -10 -11 -22 -20 -26 -20 -11 0 -143 -91 -147 -101 -2 -5 -8 -9 -14
-9 -11 0 -235 -164 -278 -203 -14 -13 -49 -40 -77 -61 -29 -21 -53 -42 -53
-47 0 -5 -6 -9 -13 -9 -7 0 -31 -18 -52 -40 -21 -22 -44 -40 -50 -40 -5 0 -37
-26 -71 -58 -33 -31 -87 -80 -120 -108 -32 -29 -133 -126 -224 -216 -104 -104
-175 -167 -192 -171 -16 -4 -40 -10 -55 -14 -28 -6 -97 -54 -120 -83 -26 -32
-52 -97 -59 -145 -5 -37 -18 -64 -47 -102 -42 -53 -54 -61 -122 -83 -49 -15
-100 -62 -126 -114 -30 -62 -27 -234 5 -329 32 -95 79 -205 114 -267 5 -8 14
-25 20 -37 119 -229 193 -345 276 -431 50 -52 120 -93 181 -107 17 -4 68 -11
115 -16 47 -5 117 -13 155 -19 67 -10 115 -17 285 -39 260 -34 441 -39 512
-13 93 33 209 147 267 260 10 20 19 22 82 22 80 0 81 0 99 -118 12 -76 24
-117 53 -182 11 -25 23 -54 27 -65 16 -43 35 -82 61 -120 14 -22 35 -58 47
-80 11 -22 49 -70 84 -107 34 -36 70 -75 78 -85 33 -41 191 -155 270 -196 36
-18 74 -38 85 -44 41 -22 72 -32 190 -64 47 -12 226 -39 262 -39 36 0 239 35
298 51 22 6 52 13 68 16 15 3 30 9 33 14 3 5 13 9 22 9 9 0 28 9 42 20 14 11
31 20 37 20 20 0 205 124 237 159 17 17 34 31 39 31 12 0 99 92 139 148 17 23
35 42 40 42 4 0 8 5 8 11 0 5 17 36 38 67 51 75 111 195 129 257 34 118 43
157 43 180 0 13 5 36 12 50 10 22 17 25 65 25 59 0 57 2 85 -93 20 -68 82
-149 136 -178 l46 -24 2386 0 2385 0 56 27 c66 33 209 181 209 217 0 6 5 11
10 11 6 0 10 9 10 20 0 20 5 21 83 18 l82 -3 3 -50 c2 -27 7 -54 13 -59 5 -6
9 -21 9 -35 0 -25 16 -83 31 -113 5 -10 9 -23 9 -29 0 -7 12 -37 26 -68 14
-31 31 -67 37 -81 32 -70 141 -216 226 -301 96 -97 164 -148 270 -204 32 -17
68 -37 82 -45 13 -9 42 -21 64 -28 22 -8 49 -17 60 -22 43 -17 283 -60 340
-60 110 0 399 68 465 110 14 9 39 22 55 30 88 42 209 131 295 219 105 106 111
113 166 197 61 92 62 96 90 154 14 30 34 72 45 93 10 22 19 45 19 53 0 8 4 22
9 32 10 19 23 68 42 155 l12 57 62 0 c67 0 60 5 97 -77 31 -69 100 -150 163
-192 l40 -26 435 -6 c414 -6 686 2 740 20 14 5 45 15 70 22 25 7 57 21 72 31
14 10 31 18 37 18 19 0 97 64 119 97 12 18 22 41 22 51 0 10 5 23 11 29 12 12
-15 106 -37 124 -8 6 -14 15 -14 20 0 5 -9 18 -20 29 -27 27 -27 96 0 130 11
14 20 29 20 33 0 17 85 132 140 191 136 144 130 132 130 234 0 73 -4 99 -20
127 -11 20 -20 44 -20 55 0 10 -4 22 -10 25 -5 3 -10 13 -10 22 0 32 -98 159
-205 265 -100 99 -270 232 -363 283 -21 11 -39 22 -42 25 -3 3 -34 19 -70 37
-135 67 -218 103 -234 103 -9 0 -16 4 -16 8 0 4 -21 13 -47 20 -27 8 -56 18
-65 23 -10 5 -24 9 -32 9 -8 0 -31 9 -53 19 -21 10 -56 24 -78 29 -22 6 -74
20 -115 32 -84 24 -147 39 -203 47 -20 3 -40 9 -43 14 -3 5 -23 9 -44 9 -21 0
-42 5 -45 10 -3 6 -24 10 -45 10 -21 0 -42 5 -45 10 -3 5 -19 10 -34 10 -15 0
-31 4 -37 9 -5 5 -27 11 -49 14 -22 4 -62 11 -90 16 -27 6 -79 15 -113 21 -35
5 -68 13 -74 16 -5 3 -40 11 -76 16 -37 5 -92 14 -122 19 -67 12 -151 26 -227
38 -32 6 -80 15 -108 21 -68 15 -109 22 -385 60 -36 5 -87 14 -115 20 -53 10
-210 29 -590 69 -49 6 -119 15 -155 21 -85 14 -369 42 -595 59 -335 26 -394
31 -440 37 -59 7 -87 25 -206 136 -20 18 -71 60 -115 93 -43 33 -80 63 -82 68
-2 4 -9 7 -15 7 -7 0 -25 14 -41 30 -16 17 -35 30 -41 30 -7 0 -20 9 -30 20
-10 11 -23 20 -30 20 -6 0 -22 11 -35 25 -13 14 -29 25 -35 25 -6 0 -24 14
-40 30 -16 17 -33 30 -38 30 -4 0 -28 14 -52 30 -24 17 -48 30 -53 30 -5 0
-16 8 -25 18 -9 9 -33 26 -54 37 -21 11 -45 27 -53 35 -8 8 -28 22 -45 30 -16
8 -38 21 -48 29 -20 16 -47 33 -97 58 -19 10 -54 30 -77 45 -23 16 -46 28 -52
28 -6 0 -11 3 -11 8 0 4 -15 13 -32 21 -18 8 -46 24 -63 36 -16 11 -59 36 -95
54 -36 19 -77 42 -92 52 -14 11 -32 19 -40 19 -8 0 -18 4 -24 9 -19 19 -165
96 -556 292 -94 48 -140 59 -289 69 -157 11 -1282 14 -1292 4z m1428 -70 c11
-7 31 -16 45 -22 51 -20 125 -57 128 -64 2 -5 12 -8 23 -8 10 0 19 -4 19 -10
0 -5 6 -10 13 -10 17 0 256 -121 296 -149 16 -12 35 -21 43 -21 8 0 18 -4 24
-9 5 -5 54 -32 109 -61 55 -29 107 -58 115 -64 8 -7 38 -23 65 -36 28 -13 68
-36 90 -50 22 -14 49 -31 60 -38 11 -6 30 -17 43 -22 13 -6 38 -21 56 -35 18
-14 36 -25 40 -25 3 0 46 -25 94 -56 48 -31 101 -65 117 -75 124 -76 437 -292
495 -341 14 -11 45 -35 70 -52 25 -18 56 -42 70 -54 89 -76 192 -162 217 -179
32 -23 78 -30 318 -43 94 -6 208 -15 255 -20 47 -5 135 -14 195 -20 353 -32
615 -60 675 -70 30 -6 91 -15 135 -21 44 -6 109 -14 145 -19 36 -5 99 -14 140
-19 41 -6 98 -15 125 -22 28 -6 75 -13 105 -15 30 -3 64 -9 75 -14 11 -5 45
-11 75 -14 30 -3 84 -9 120 -14 36 -5 103 -15 149 -21 47 -7 88 -14 93 -17 4
-3 38 -9 76 -14 37 -5 92 -14 122 -19 30 -5 82 -14 115 -19 33 -6 78 -16 100
-22 22 -7 58 -14 80 -17 22 -2 49 -8 60 -13 11 -5 37 -11 58 -14 20 -3 54 -9
75 -12 20 -3 46 -9 57 -14 11 -5 34 -11 50 -14 84 -13 344 -84 359 -98 6 -4
22 -8 37 -8 15 0 31 -4 34 -10 3 -5 17 -10 30 -10 13 0 27 -4 30 -10 3 -5 17
-10 30 -10 13 0 27 -4 30 -10 3 -5 14 -10 25 -10 10 0 35 -9 57 -19 21 -10 58
-25 83 -32 25 -7 79 -28 120 -47 41 -19 86 -39 100 -45 27 -12 251 -162 315
-211 47 -36 161 -133 190 -161 32 -33 119 -138 138 -167 38 -61 57 -100 57
-118 0 -10 5 -22 10 -25 6 -3 10 -24 10 -45 0 -21 5 -42 10 -45 6 -3 10 -24
10 -45 0 -38 -2 -40 -42 -51 -24 -6 -52 -18 -63 -28 -11 -9 -32 -23 -47 -30
-24 -13 -106 -88 -164 -153 -11 -13 -52 -71 -90 -129 -128 -197 -139 -212
-162 -232 -36 -33 -145 -39 -587 -34 -351 3 -431 7 -489 21 -81 20 -137 48
-194 97 -51 44 -74 93 -84 184 -15 144 -35 242 -49 251 -5 3 -9 16 -9 29 0 13
-4 34 -9 47 -5 13 -14 41 -21 63 -13 39 -52 131 -72 169 -28 53 -51 92 -57 96
-3 3 -15 21 -25 40 -11 19 -33 52 -50 74 -40 51 -210 226 -219 226 -4 0 -33
20 -65 45 -31 25 -61 45 -65 45 -5 0 -27 13 -50 28 -23 15 -53 32 -67 38 -14
6 -45 21 -68 33 -24 11 -50 21 -58 21 -7 0 -28 8 -46 18 -56 32 -171 46 -368
46 -197 0 -309 -13 -374 -45 -22 -10 -46 -19 -53 -19 -7 0 -21 -4 -31 -9 -9
-5 -39 -19 -67 -32 -54 -26 -147 -82 -209 -126 -48 -34 -266 -244 -266 -255 0
-5 -10 -19 -21 -31 -44 -46 -169 -253 -169 -281 0 -6 -9 -22 -20 -36 -11 -14
-20 -34 -20 -46 0 -11 -4 -24 -8 -30 -5 -5 -14 -29 -21 -54 -34 -116 -40 -137
-46 -170 -10 -51 -25 -191 -31 -300 -4 -52 -10 -99 -15 -104 -5 -6 -9 -19 -9
-30 0 -12 -9 -32 -20 -46 -11 -14 -20 -31 -20 -37 0 -7 -4 -13 -10 -13 -5 0
-10 -6 -10 -14 0 -25 -115 -132 -176 -164 l-62 -32 -2349 0 -2350 0 -47 24
c-55 28 -91 59 -109 95 -8 15 -18 35 -24 46 -50 90 -60 137 -73 340 -6 83 -14
172 -20 198 -5 27 -10 60 -10 75 0 26 -16 83 -31 114 -5 10 -9 29 -9 42 0 14
-4 28 -10 31 -5 3 -10 17 -10 30 0 13 -4 27 -10 30 -5 3 -10 16 -10 29 0 13
-9 31 -20 41 -11 10 -20 24 -20 32 0 17 -47 112 -67 135 -8 9 -22 30 -31 47
-9 17 -35 52 -57 78 -58 70 -226 233 -240 233 -6 0 -22 11 -35 25 -24 26 -85
63 -195 117 -33 17 -68 34 -77 39 -10 5 -24 9 -31 9 -7 0 -31 9 -53 19 -64 31
-177 45 -364 45 -189 1 -310 -14 -374 -45 -22 -10 -46 -19 -53 -19 -13 0 -24
-5 -70 -28 -13 -7 -27 -12 -33 -12 -6 0 -29 -12 -53 -27 -23 -15 -58 -36 -77
-46 -19 -11 -44 -27 -55 -37 -11 -9 -40 -31 -65 -47 -65 -44 -186 -166 -253
-254 -31 -42 -57 -80 -57 -84 0 -3 -13 -25 -28 -48 -30 -44 -82 -151 -82 -167
0 -5 -9 -25 -20 -45 -11 -20 -20 -44 -20 -55 0 -10 -5 -22 -10 -25 -5 -3 -10
-19 -10 -35 0 -16 -4 -32 -10 -35 -5 -3 -10 -18 -10 -33 0 -15 -9 -54 -20 -86
-11 -33 -20 -74 -20 -92 0 -41 -17 -113 -42 -179 -12 -34 -38 -70 -81 -111
l-62 -61 -475 -7 c-476 -6 -507 -5 -711 29 -144 25 -298 118 -373 225 -13 19
-50 87 -81 150 -107 218 -128 285 -126 404 3 127 32 168 134 190 31 7 107 71
107 91 0 7 10 19 22 27 20 14 26 13 57 -4 29 -16 48 -19 130 -14 92 4 188 16
241 30 88 24 108 30 137 42 17 8 34 14 37 14 13 0 95 65 100 80 3 8 12 33 20
55 24 61 20 91 -12 113 -29 22 -78 28 -264 38 -65 3 -118 9 -118 13 0 4 11 14
25 21 14 7 25 18 25 24 0 9 172 180 232 231 13 11 58 52 99 90 41 39 101 93
134 120 32 28 68 60 80 73 12 12 27 22 33 22 6 0 12 4 14 8 4 10 145 122 153
122 4 0 19 12 33 28 15 15 39 33 55 41 15 8 27 18 27 22 0 5 33 29 73 55 39
26 74 50 77 54 3 4 10 9 17 11 7 2 43 25 80 52 89 62 191 129 225 146 15 8 36
21 45 30 10 9 32 23 48 31 17 8 79 43 139 77 60 35 111 63 115 63 3 0 17 9 31
20 14 11 33 20 43 20 9 0 17 3 17 8 0 4 15 13 33 20 17 7 41 18 52 24 35 20
67 35 180 88 61 28 118 55 127 61 10 5 23 9 29 9 6 0 23 8 37 18 15 10 52 26
82 36 30 10 70 27 88 37 18 11 40 19 48 19 8 0 22 4 32 9 31 16 66 30 116 46
27 9 61 22 75 30 14 7 53 21 86 30 33 9 83 25 110 35 28 10 70 23 95 30 25 6
53 16 62 21 10 5 29 9 42 9 14 0 28 5 31 10 3 6 21 10 39 10 17 0 36 4 42 8
12 11 113 39 224 63 30 6 66 15 80 20 24 9 79 20 198 40 28 5 78 14 110 19 31
6 84 15 117 20 33 5 85 14 115 20 123 25 488 58 875 79 230 13 1537 8 1560 -5z
m-3655 -2143 c36 -7 82 -14 103 -17 20 -4 40 -10 43 -15 3 -5 16 -9 29 -9 13
0 27 -4 30 -10 3 -5 16 -10 28 -10 12 0 33 -9 47 -20 14 -11 31 -20 38 -20 18
0 91 -38 128 -66 17 -13 34 -24 38 -24 31 0 266 -229 331 -322 69 -98 165
-278 165 -309 0 -8 8 -28 18 -44 10 -17 22 -44 26 -60 4 -17 11 -48 17 -70 29
-112 50 -268 63 -465 l4 -60 -55 0 c-49 0 -54 2 -47 17 11 22 10 278 0 348 -4
28 -11 59 -16 70 -5 11 -11 36 -14 55 -11 83 -51 218 -70 239 -9 10 -16 24
-16 32 0 20 -23 69 -32 69 -5 0 -8 7 -8 16 0 9 -8 24 -17 33 -10 9 -27 32 -37
51 -54 96 -188 234 -326 336 -58 43 -238 134 -264 134 -8 0 -18 5 -21 10 -3 6
-19 10 -35 10 -16 0 -32 5 -35 10 -3 6 -17 10 -30 10 -13 0 -26 4 -29 9 -13
21 -264 32 -381 17 -72 -10 -283 -79 -343 -112 -23 -13 -47 -24 -52 -24 -9 0
-35 -17 -120 -78 -144 -103 -282 -250 -340 -360 -17 -34 -36 -65 -41 -67 -8
-5 -30 -51 -49 -100 -4 -11 -17 -41 -29 -68 -11 -26 -21 -54 -21 -62 0 -9 -4
-23 -9 -33 -13 -24 -38 -179 -47 -287 -9 -118 -9 -128 0 -207 l8 -68 -71 0
c-54 0 -70 3 -65 12 4 7 11 32 16 55 4 24 13 64 19 91 6 26 14 94 19 152 13
151 21 204 31 215 5 5 9 23 9 40 0 17 4 35 9 41 5 5 21 45 36 89 40 120 63
162 180 332 36 53 178 203 234 246 67 53 164 113 240 149 47 22 94 44 103 49
10 5 27 9 37 9 11 0 23 5 26 10 3 6 21 10 40 10 19 0 37 5 40 10 3 6 27 10 53
11 26 0 56 4 67 9 26 12 261 5 345 -9z m7910 4 c30 -4 59 -11 65 -16 5 -5 24
-9 41 -9 18 0 36 -4 39 -10 3 -5 15 -10 26 -10 10 0 27 -4 37 -9 44 -22 172
-81 176 -81 2 0 44 -26 93 -59 94 -63 202 -154 249 -211 16 -19 36 -42 44 -50
47 -46 151 -218 203 -340 67 -154 85 -238 117 -545 5 -49 12 -111 16 -137 l6
-48 -56 0 -57 0 8 38 c11 53 9 223 -5 322 -6 47 -14 105 -18 130 -3 25 -10 49
-15 55 -5 5 -9 21 -9 36 0 15 -4 31 -10 34 -5 3 -10 14 -10 25 0 10 -9 35 -19
57 -11 21 -31 63 -45 93 -40 84 -90 168 -120 199 -14 15 -26 32 -26 38 0 14
-169 174 -228 216 -92 66 -264 157 -295 157 -9 0 -19 5 -22 10 -3 6 -19 10
-35 10 -16 0 -32 5 -35 10 -3 6 -17 10 -30 10 -13 0 -26 4 -29 9 -13 21 -271
32 -386 17 -30 -5 -80 -16 -110 -25 -149 -48 -196 -65 -210 -75 -8 -6 -46 -27
-84 -46 -39 -19 -79 -44 -91 -55 -12 -11 -45 -38 -75 -60 -86 -65 -120 -96
-120 -111 0 -8 -6 -14 -12 -15 -13 0 -99 -106 -128 -156 -8 -15 -21 -33 -27
-41 -7 -7 -13 -17 -13 -22 0 -5 -6 -15 -12 -22 -14 -14 -19 -24 -63 -128 -15
-36 -31 -73 -36 -82 -5 -10 -9 -29 -9 -42 0 -14 -4 -28 -10 -31 -5 -3 -10 -21
-10 -39 0 -17 -4 -36 -9 -41 -5 -6 -12 -32 -15 -60 -3 -27 -10 -90 -16 -140
-5 -49 -7 -132 -4 -182 l6 -93 -67 0 c-53 0 -65 3 -57 13 13 17 22 72 48 297
8 74 19 153 24 175 23 108 33 144 52 185 11 25 24 54 28 65 5 11 17 41 29 67
12 26 21 52 21 57 0 5 7 14 16 22 8 7 25 31 36 52 33 65 115 166 207 255 84
81 160 142 179 142 5 0 17 9 27 20 22 24 237 130 264 130 11 0 22 4 25 9 6 9
27 14 134 30 35 5 66 12 70 16 7 7 255 0 342 -10z m-10560 -118 c74 -7 141
-16 148 -20 17 -11 14 -56 -6 -95 -18 -34 -60 -62 -93 -62 -10 0 -21 -4 -24
-10 -3 -5 -17 -10 -31 -10 -14 0 -35 -5 -47 -12 -42 -23 -274 -50 -347 -41
-64 8 -70 16 -70 89 0 61 1 65 43 106 25 26 59 48 83 54 53 15 182 16 344 1z
m2590 -7 c130 -13 229 -39 312 -81 10 -5 25 -9 33 -9 8 0 15 -4 15 -10 0 -5 8
-10 18 -10 9 -1 33 -14 52 -30 19 -17 39 -30 45 -30 5 0 22 -11 37 -25 15 -14
31 -25 35 -25 9 0 213 -202 213 -211 0 -4 24 -43 54 -87 29 -44 60 -94 67
-111 8 -17 17 -31 21 -31 5 0 8 -7 8 -15 0 -8 4 -23 9 -33 11 -21 23 -52 50
-122 59 -158 76 -499 35 -700 -23 -112 -78 -255 -126 -327 -15 -23 -28 -46
-28 -52 0 -6 -16 -28 -35 -50 -19 -21 -35 -43 -35 -49 0 -13 -158 -173 -225
-229 -27 -22 -72 -53 -100 -68 -27 -15 -62 -36 -77 -46 -14 -11 -33 -19 -42
-19 -9 0 -16 -4 -16 -10 0 -5 -9 -10 -20 -10 -11 0 -28 -4 -38 -9 -9 -5 -29
-14 -44 -20 -16 -6 -38 -15 -50 -20 -114 -47 -481 -42 -593 8 -22 10 -58 24
-80 31 -46 14 -88 34 -160 75 -27 15 -59 33 -70 39 -11 6 -32 23 -46 38 -15
16 -31 28 -36 28 -7 0 -106 96 -170 166 -45 49 -95 124 -133 199 -20 39 -41
79 -47 90 -17 32 -30 65 -53 135 -12 36 -25 74 -30 85 -5 11 -12 40 -16 65
-10 59 -11 443 -1 495 12 59 29 119 39 130 4 5 8 19 8 32 0 13 5 32 10 43 6
11 15 29 20 40 6 11 10 28 10 39 0 11 4 21 9 23 5 2 25 37 44 78 20 41 44 84
54 95 10 11 24 32 32 47 7 15 29 44 48 65 71 77 157 163 164 163 4 0 26 16 49
35 23 19 57 42 76 51 19 9 34 20 34 25 0 5 6 9 14 9 8 0 31 9 53 19 49 25 172
66 243 80 97 20 229 24 360 11z m8027 -15 c94 -25 138 -40 215 -74 26 -12 51
-21 56 -21 5 0 17 -9 29 -19 11 -10 33 -26 49 -34 42 -22 168 -127 172 -143 2
-8 9 -14 16 -14 15 0 70 -68 153 -190 52 -75 94 -153 125 -230 6 -14 14 -33
19 -42 5 -10 9 -26 9 -36 0 -11 8 -34 17 -53 18 -36 27 -75 45 -199 19 -124
10 -420 -13 -444 -5 -6 -9 -23 -9 -38 0 -16 -4 -37 -10 -48 -5 -11 -14 -29
-20 -40 -5 -11 -10 -29 -10 -39 0 -11 -4 -23 -10 -26 -5 -3 -10 -14 -10 -23
-1 -9 -9 -31 -18 -49 -9 -17 -32 -60 -49 -96 -18 -35 -40 -70 -49 -78 -9 -7
-30 -33 -46 -57 -45 -65 -60 -83 -149 -166 -39 -37 -125 -104 -161 -126 -55
-32 -215 -110 -227 -110 -6 0 -30 -9 -54 -19 -23 -11 -58 -22 -77 -26 -168
-31 -460 -17 -537 26 -19 11 -42 19 -53 19 -10 0 -22 5 -25 10 -3 6 -17 10
-31 10 -13 0 -24 5 -24 10 0 6 -9 10 -19 10 -11 0 -23 5 -27 11 -3 6 -21 17
-38 25 -58 27 -216 140 -216 156 0 5 -11 13 -24 18 -13 5 -37 26 -53 46 -15
21 -43 54 -60 73 -18 20 -33 41 -33 47 0 5 -13 22 -28 37 -16 15 -35 43 -42
62 -8 19 -17 35 -22 35 -4 0 -8 7 -8 15 0 8 -11 31 -25 51 -14 20 -30 55 -35
78 -6 22 -18 57 -27 76 -16 36 -26 73 -45 170 -12 61 -14 407 -3 485 4 28 11
54 16 60 5 5 9 20 9 34 0 14 12 57 26 96 27 73 120 269 141 295 7 8 32 42 57
75 58 77 109 131 171 180 27 22 58 48 69 57 10 9 33 24 51 32 18 9 38 22 45
31 7 8 18 15 25 15 7 0 30 9 52 19 81 42 245 87 343 95 84 7 323 -5 377 -19z
m2923 -840 c0 -7 -9 -19 -58 -75 -49 -57 -149 -204 -167 -247 -37 -89 -27
-153 33 -218 42 -46 57 -87 40 -118 -18 -33 -95 -97 -118 -97 -11 0 -22 -4
-25 -10 -3 -5 -17 -10 -30 -10 -13 0 -27 -4 -30 -10 -3 -5 -19 -10 -36 -10
-16 0 -37 -4 -47 -9 -57 -29 -103 -31 -601 -31 l-512 0 -57 31 c-31 17 -64 36
-72 42 -25 20 -77 90 -85 116 -4 14 -16 38 -26 55 -11 17 -19 41 -19 53 0 12
-4 25 -10 28 -10 6 -14 65 -5 65 3 0 18 -12 33 -26 15 -14 51 -37 80 -51 29
-14 55 -29 58 -34 3 -5 18 -9 33 -9 15 0 31 -4 36 -9 15 -14 114 -21 350 -27
228 -6 654 11 669 26 6 6 17 10 26 10 22 0 134 117 160 166 11 23 30 50 40 59
11 10 27 32 35 48 36 71 195 257 221 257 6 0 19 9 29 20 16 18 55 28 55 15z
m-12409 -494 c-6 -11 -11 -28 -11 -38 0 -25 -58 -118 -111 -175 -29 -33 -69
-61 -126 -89 l-83 -40 -123 4 c-67 3 -149 10 -182 16 -33 6 -89 14 -125 17
-36 3 -74 9 -85 14 -11 5 -47 11 -80 14 -33 4 -94 11 -135 16 -41 5 -118 13
-170 16 -81 6 -104 11 -157 40 -35 18 -80 50 -102 71 -44 43 -111 129 -111
142 0 5 22 -2 50 -15 27 -13 56 -24 63 -24 8 0 29 -8 48 -17 89 -45 275 -57
789 -54 528 3 489 -4 590 113 l65 75 3 -33 c2 -18 -2 -42 -7 -53z"/>
<path d="M5757 4744 c-3 -3 -50 -11 -104 -16 -201 -19 -259 -26 -286 -33 -39
-10 -71 -59 -62 -93 4 -15 11 -61 16 -102 5 -41 13 -102 19 -135 5 -33 17
-130 26 -215 27 -262 33 -313 44 -370 6 -30 16 -100 20 -155 20 -212 39 -269
105 -307 l40 -23 1210 -3 c1352 -3 1745 6 2090 48 138 16 170 22 180 31 5 5
31 9 57 9 52 0 108 22 108 43 0 17 -10 28 -55 62 -22 16 -50 40 -63 52 -13 13
-26 23 -30 23 -4 0 -18 10 -32 23 -14 12 -47 38 -73 57 -27 19 -65 49 -85 65
-21 17 -50 37 -65 45 -16 8 -33 22 -38 32 -5 10 -15 18 -22 18 -11 0 -154 97
-219 149 -14 12 -31 21 -37 21 -6 0 -11 5 -11 10 0 6 -5 10 -11 10 -6 0 -36
17 -67 38 -110 75 -145 97 -181 117 -20 11 -54 32 -77 47 -22 14 -65 39 -95
54 -30 16 -60 35 -68 42 -7 7 -31 21 -52 30 -22 9 -39 20 -39 24 0 5 -9 8 -19
8 -11 0 -21 3 -23 8 -9 20 -555 287 -663 323 -22 7 -44 17 -50 21 -5 4 -15 8
-22 8 -8 0 -33 9 -55 20 -40 19 -62 20 -673 20 -348 0 -634 -3 -638 -6z m1272
-65 c20 -6 44 -15 53 -20 10 -5 24 -9 32 -9 8 0 27 -6 43 -14 92 -46 117 -56
134 -56 10 0 19 -4 19 -8 0 -4 33 -22 73 -40 129 -59 297 -144 303 -153 3 -5
14 -9 24 -9 10 0 20 -4 22 -8 2 -4 29 -20 60 -36 32 -15 60 -31 63 -36 3 -4
33 -22 68 -39 92 -46 157 -83 225 -130 34 -22 65 -41 71 -41 5 0 22 -11 38
-24 15 -13 44 -33 64 -44 70 -39 83 -47 133 -84 28 -21 54 -38 59 -38 4 0 15
-8 25 -17 11 -10 32 -26 48 -35 51 -30 68 -42 102 -70 18 -16 36 -28 41 -28 4
0 20 -11 34 -24 15 -14 50 -41 79 -61 29 -19 89 -65 133 -100 44 -36 89 -69
100 -74 29 -13 50 -40 39 -51 -5 -4 -36 -11 -69 -14 -33 -3 -100 -10 -150 -16
-49 -6 -137 -15 -195 -20 -58 -5 -161 -14 -230 -21 -81 -7 -598 -12 -1482 -15
l-1357 -4 -43 24 c-56 30 -90 95 -101 191 -4 39 -12 104 -17 145 -12 87 -26
197 -39 308 -6 42 -15 104 -21 137 -15 87 -49 403 -50 466 0 35 1 36 53 47
103 22 302 29 936 30 453 2 655 -1 680 -9z"/>
<path d="M4750 4639 c-14 -6 -45 -15 -70 -19 -25 -5 -65 -14 -90 -20 -25 -6
-61 -15 -80 -19 -19 -4 -52 -15 -74 -24 -21 -10 -49 -17 -62 -17 -12 0 -26 -4
-29 -10 -3 -5 -19 -10 -35 -10 -16 0 -32 -4 -35 -10 -3 -5 -17 -10 -31 -10
-13 0 -32 -4 -42 -9 -25 -12 -110 -41 -157 -53 -22 -6 -44 -15 -49 -19 -6 -5
-18 -9 -28 -9 -9 0 -33 -9 -53 -20 -20 -11 -42 -20 -50 -20 -9 0 -23 -4 -33
-9 -9 -5 -28 -13 -42 -18 -59 -24 -122 -52 -275 -123 -49 -23 -113 -53 -142
-66 -28 -13 -55 -28 -58 -34 -3 -5 -34 -23 -68 -40 -34 -17 -87 -47 -117 -65
-30 -19 -64 -38 -75 -44 -12 -5 -27 -16 -34 -25 -7 -9 -20 -16 -27 -16 -8 0
-14 -4 -14 -8 0 -5 -12 -15 -27 -23 -15 -8 -38 -24 -51 -36 -14 -13 -29 -23
-34 -23 -5 0 -14 -4 -21 -10 -7 -5 -31 -25 -54 -42 -22 -18 -67 -53 -99 -78
-105 -82 -145 -123 -165 -167 -29 -64 -5 -123 74 -183 88 -67 24 -63 1208 -67
l1075 -4 33 23 c46 31 66 93 56 173 -8 65 -20 249 -36 525 -15 271 -26 400
-39 455 -6 28 -14 66 -17 85 -10 61 -35 95 -74 97 -19 1 -45 -2 -59 -8z m71
-52 c18 -14 26 -63 40 -242 5 -71 14 -186 19 -255 5 -69 14 -168 20 -220 6
-52 15 -156 20 -230 5 -74 12 -156 16 -183 4 -34 1 -57 -10 -82 l-17 -35
-1059 0 -1059 0 -48 21 c-27 12 -59 27 -73 32 -45 19 -110 89 -110 118 0 29
65 99 148 160 23 17 42 35 42 40 0 5 6 9 13 9 7 0 30 16 52 35 22 20 70 54
106 76 37 22 75 49 84 59 10 11 22 20 27 20 5 0 29 14 53 30 24 17 48 30 53
30 6 0 12 3 14 8 3 7 45 31 168 95 41 21 82 45 91 53 8 8 20 14 26 14 6 0 28
9 50 19 94 48 153 75 225 102 43 17 80 35 83 40 4 5 15 9 26 9 10 0 27 4 37 9
9 5 31 14 47 21 17 7 38 16 47 21 10 5 24 9 32 9 8 0 31 9 53 19 21 11 65 27
98 36 33 9 85 24 115 34 53 18 86 27 180 51 25 6 59 16 76 21 17 5 39 9 50 9
11 0 44 9 74 20 30 11 69 20 87 20 17 0 35 5 38 10 8 14 47 12 66 -3z"/>
<path d="M5536 3149 c-21 -16 -26 -27 -21 -43 6 -20 10 -55 35 -351 6 -71 18
-166 27 -210 9 -44 19 -105 24 -135 13 -89 35 -208 57 -320 5 -25 16 -65 24
-90 8 -25 20 -63 26 -85 6 -22 16 -60 22 -85 7 -25 17 -56 22 -70 5 -14 21
-59 35 -100 14 -41 29 -79 34 -85 5 -5 9 -16 9 -25 0 -9 9 -26 20 -38 11 -12
20 -26 20 -32 0 -11 19 -47 35 -66 6 -7 30 -41 54 -76 70 -99 166 -176 281
-226 14 -6 48 -13 75 -16 88 -9 3017 -5 3041 5 13 4 24 15 24 22 0 19 -31 110
-41 121 -5 6 -9 22 -9 37 0 15 -4 31 -10 34 -5 3 -10 21 -10 39 0 17 -4 36 -9
42 -5 5 -12 27 -15 49 -7 52 -23 149 -37 228 -7 39 -14 317 -18 763 -5 572 -9
704 -20 717 -12 16 -153 17 -1831 17 l-1817 0 -27 -21z m3641 -51 c4 -7 11
-321 15 -698 3 -377 11 -723 17 -770 6 -47 13 -107 16 -135 3 -27 10 -59 14
-70 18 -43 31 -92 31 -113 0 -12 4 -30 9 -40 17 -33 33 -100 27 -111 -9 -14
-2875 -15 -2983 -1 -79 10 -134 34 -187 80 -18 17 -37 30 -41 30 -9 0 -35 27
-35 37 0 5 -16 25 -36 44 -20 18 -40 43 -45 54 -5 11 -15 29 -21 39 -46 70
-68 112 -68 128 0 10 -4 18 -10 18 -5 0 -10 6 -10 13 0 18 -24 67 -32 67 -5 0
-8 11 -8 24 0 14 -4 28 -10 31 -5 3 -10 15 -10 26 0 10 -4 27 -9 37 -5 9 -14
37 -21 62 -7 25 -17 56 -22 70 -11 27 -20 63 -57 233 -5 23 -15 60 -21 82 -21
73 -60 319 -80 505 -4 47 -14 117 -20 155 -6 39 -14 103 -17 143 l-6 72 1806
0 c1434 0 1807 -3 1814 -12z"/>
<path d="M6147 2963 c-334 -4 -348 -9 -297 -116 34 -70 71 -103 142 -126 50
-16 266 -16 304 1 96 41 157 111 166 190 5 47 -4 62 -35 56 -7 -2 -133 -4
-280 -5z m269 -64 c3 -6 1 -16 -5 -22 -6 -6 -11 -18 -11 -26 0 -21 -40 -61
-61 -61 -10 0 -20 -4 -23 -9 -6 -9 -97 -23 -161 -23 -85 -1 -176 25 -225 65
-17 14 -40 52 -40 66 0 18 515 28 526 10z"/>
<path d="M12845 2813 c-22 -2 -51 -9 -65 -15 -38 -18 -90 -70 -90 -89 0 -10
-4 -21 -10 -24 -5 -3 -10 -21 -10 -40 0 -19 5 -37 10 -40 6 -3 10 -15 10 -25
0 -54 143 -236 266 -337 61 -51 104 -79 164 -108 30 -15 63 -31 72 -36 10 -5
24 -9 31 -9 7 0 32 -9 55 -20 22 -11 57 -20 76 -20 19 0 38 -4 41 -10 4 -6
107 -10 275 -10 168 0 271 4 275 10 3 6 16 10 29 10 29 0 106 74 106 103 -1
33 -39 100 -88 151 -23 25 -46 46 -50 46 -4 1 -25 19 -47 40 -22 22 -44 40
-48 40 -4 0 -17 8 -28 18 -10 11 -32 25 -47 32 -15 8 -36 22 -47 31 -11 9 -39
27 -62 39 -23 12 -47 28 -54 36 -6 8 -17 14 -23 14 -6 0 -22 9 -36 20 -14 11
-30 20 -37 20 -6 0 -33 13 -60 30 -26 16 -82 42 -123 56 -41 15 -79 30 -84 35
-6 5 -20 9 -32 9 -13 0 -26 5 -29 10 -3 6 -20 10 -36 10 -17 0 -38 4 -47 9
-20 10 -198 20 -257 14z m159 -54 c22 -6 57 -14 76 -19 19 -5 67 -16 105 -26
39 -9 102 -31 140 -49 39 -19 91 -43 117 -54 26 -12 49 -25 52 -30 3 -5 29
-21 58 -36 29 -15 67 -38 84 -51 17 -13 35 -24 41 -24 5 0 18 -9 28 -20 10
-11 24 -20 30 -20 7 0 19 -7 26 -16 8 -9 28 -26 45 -38 59 -39 159 -129 187
-167 35 -47 32 -79 -8 -99 -25 -12 -78 -15 -290 -15 -246 1 -297 5 -414 35
-44 11 -163 69 -169 83 -2 4 -11 7 -19 7 -9 0 -23 8 -32 18 -9 10 -32 29 -51
41 -47 32 -93 75 -175 166 -77 84 -133 214 -112 258 19 40 84 66 166 66 40 1
92 -4 115 -10z"/>
<path d="M3145 2308 c-72 -17 -120 -30 -140 -38 -33 -12 -80 -35 -85 -40 -3
-4 -30 -18 -60 -33 -152 -76 -306 -240 -384 -412 -15 -33 -36 -78 -47 -100
-10 -22 -19 -50 -19 -62 0 -12 -4 -25 -10 -28 -5 -3 -10 -24 -10 -45 0 -21 -4
-41 -8 -44 -30 -18 -12 -493 19 -512 5 -3 9 -17 9 -32 0 -15 9 -38 20 -52 11
-14 20 -30 20 -36 0 -21 49 -119 70 -141 11 -12 20 -25 20 -27 0 -12 90 -123
127 -157 112 -104 287 -196 448 -235 39 -10 301 -10 340 0 77 18 115 32 185
64 120 55 140 66 162 89 12 13 26 23 32 23 18 0 159 150 207 220 25 36 62 101
83 145 21 44 42 88 47 97 5 10 9 29 9 42 0 14 4 27 9 30 11 7 18 57 29 186 11
132 -8 382 -29 396 -5 3 -9 18 -9 34 0 16 -4 32 -10 35 -5 3 -10 16 -10 29 0
12 -4 26 -10 32 -5 5 -25 39 -42 74 -43 85 -102 171 -158 229 -60 62 -164 148
-190 156 -11 3 -20 11 -20 16 0 5 -7 9 -16 9 -9 0 -28 8 -42 18 -27 18 -123
50 -215 71 -57 13 -266 12 -322 -1z m260 -44 c56 -5 82 -12 127 -35 10 -5 27
-9 38 -9 11 0 20 -4 20 -10 0 -5 8 -10 18 -10 24 0 76 -26 92 -45 7 -8 16 -15
21 -15 30 0 269 -218 269 -246 0 -6 6 -17 14 -23 8 -7 23 -29 34 -49 11 -20
28 -53 39 -72 11 -20 30 -65 43 -100 12 -36 26 -69 31 -74 5 -6 9 -24 9 -41 0
-17 5 -36 11 -42 16 -16 16 -380 0 -396 -6 -6 -11 -23 -11 -37 0 -14 -9 -45
-20 -68 -11 -22 -20 -46 -20 -52 0 -5 -4 -18 -9 -28 -5 -9 -17 -33 -26 -52
-23 -48 -57 -105 -78 -128 -9 -10 -17 -23 -17 -29 0 -25 -238 -233 -266 -233
-4 0 -17 -9 -28 -19 -18 -16 -68 -34 -231 -81 -54 -16 -179 -21 -240 -11 -154
26 -278 62 -310 90 -11 10 -36 25 -55 34 -19 9 -46 27 -59 41 -14 14 -29 26
-34 26 -11 0 -147 136 -147 147 0 4 -13 22 -28 38 -15 17 -36 46 -45 65 -10
19 -22 42 -27 50 -20 32 -50 105 -50 121 0 10 -4 21 -10 24 -5 3 -10 19 -10
34 0 15 -4 31 -8 36 -26 32 -35 98 -35 260 0 172 5 204 53 330 5 11 18 46 30
77 12 32 28 62 36 69 8 6 14 16 14 21 0 31 208 268 235 268 7 0 18 7 26 16 7
8 29 24 48 35 20 11 50 27 66 37 17 10 50 24 75 31 25 8 64 22 87 32 24 11 64
19 90 20 27 1 59 5 73 9 14 5 43 7 65 4 22 -2 67 -7 100 -10z"/>
<path d="M3190 2180 c-103 -14 -245 -73 -334 -139 -98 -73 -236 -224 -236
-259 0 -5 -7 -15 -15 -22 -9 -7 -22 -29 -31 -49 -9 -20 -20 -44 -25 -53 -5
-10 -9 -26 -9 -36 0 -10 -4 -22 -9 -27 -35 -35 -56 -373 -30 -482 30 -125 74
-231 125 -304 19 -25 34 -51 34 -56 0 -18 174 -178 212 -196 20 -10 40 -22 43
-27 9 -14 91 -49 165 -71 25 -7 49 -16 55 -21 5 -4 70 -8 145 -8 111 0 146 4
200 21 82 27 144 56 197 91 23 15 45 28 50 28 11 0 203 193 203 204 0 5 12 25
28 45 29 39 50 80 89 181 42 109 47 138 46 320 0 168 -7 243 -23 265 -4 6 -20
44 -35 85 -49 131 -182 302 -295 380 -19 13 -37 27 -40 30 -7 9 -89 46 -156
71 -96 35 -226 46 -354 29z m256 -59 c16 -5 49 -15 74 -22 25 -7 56 -20 70
-29 14 -9 39 -22 55 -30 29 -14 73 -46 142 -104 52 -44 141 -166 191 -262 51
-99 77 -227 77 -384 0 -152 -41 -339 -84 -388 -9 -9 -22 -29 -29 -43 -18 -34
-131 -173 -145 -178 -6 -2 -20 -13 -32 -23 -25 -25 -122 -88 -134 -88 -5 0
-35 -14 -66 -30 -31 -16 -70 -30 -85 -30 -16 0 -32 -5 -35 -10 -8 -13 -292
-13 -300 0 -3 6 -18 10 -34 10 -30 0 -180 72 -238 115 -37 27 -124 114 -171
170 -31 37 -115 201 -131 255 -7 25 -17 53 -22 62 -5 10 -9 35 -9 56 0 21 -4
63 -10 93 -9 50 1 169 25 284 15 73 100 237 153 296 23 26 42 52 42 57 0 6 15
19 33 31 18 11 43 31 57 46 13 14 35 31 49 39 49 25 106 58 116 67 5 5 17 9
27 9 10 0 26 4 36 9 38 20 103 29 223 30 69 0 139 -3 155 -8z"/>
<path d="M3176 1610 c-22 -11 -51 -30 -64 -43 -31 -28 -92 -123 -92 -142 0 -7
-4 -17 -10 -20 -6 -3 -10 -50 -10 -105 0 -55 4 -102 10 -105 6 -3 10 -14 10
-23 0 -9 20 -42 44 -73 62 -79 124 -109 229 -109 120 0 169 29 246 142 17 26
31 56 31 67 0 11 5 23 10 26 6 3 10 50 10 105 0 55 -4 102 -10 105 -5 3 -10
13 -10 22 0 31 -90 122 -146 148 -71 33 -188 35 -248 5z m219 -61 c77 -41 113
-85 143 -180 14 -42 16 -122 3 -147 -5 -9 -16 -33 -24 -52 -18 -40 -59 -80
-102 -99 -16 -7 -38 -17 -47 -22 -24 -12 -135 -11 -143 1 -3 6 -14 10 -23 10
-44 0 -142 117 -142 169 0 11 -4 23 -10 26 -17 10 -11 107 10 164 21 59 47 91
100 127 49 32 176 34 235 3z"/>
<path d="M3241 1526 c-79 -30 -151 -137 -151 -225 0 -85 77 -201 133 -201 9 0
27 -5 41 -11 40 -19 112 8 161 59 51 54 63 89 64 185 l1 78 -50 54 c-31 32
-63 55 -80 59 -67 14 -87 14 -119 2z m117 -77 c2 -5 10 -9 17 -9 21 0 60 -59
74 -110 11 -40 10 -51 -7 -91 -21 -49 -46 -69 -108 -87 -34 -10 -49 -9 -84 3
-55 19 -67 30 -86 74 -9 20 -20 44 -25 53 -11 22 -12 65 0 72 4 3 11 19 14 36
7 35 36 62 75 72 34 8 126 0 130 -13z"/>
<path d="M11075 2310 c-11 -5 -34 -9 -52 -9 -17 -1 -35 -5 -38 -11 -3 -5 -17
-10 -31 -10 -13 0 -32 -4 -42 -9 -9 -5 -32 -15 -49 -21 -18 -7 -33 -16 -33
-21 0 -5 -7 -9 -15 -9 -14 0 -53 -18 -65 -30 -3 -3 -12 -9 -21 -15 -102 -63
-204 -163 -271 -262 -100 -149 -145 -280 -187 -543 -12 -76 8 -245 48 -410 10
-41 87 -208 101 -220 4 -3 21 -27 40 -54 31 -45 139 -160 186 -196 33 -26 132
-90 139 -90 3 0 34 -13 68 -29 57 -26 94 -38 172 -57 39 -10 301 -10 340 0 84
20 119 33 223 83 61 29 112 58 112 63 0 6 7 10 16 10 17 0 234 216 234 233 0
5 12 26 27 46 31 41 103 196 103 222 0 10 5 21 10 24 6 3 10 21 10 39 0 17 4
36 9 42 23 23 31 301 12 414 -21 128 -23 140 -32 146 -5 3 -9 13 -9 23 0 23
-73 187 -94 210 -9 9 -16 22 -16 28 0 5 -9 18 -20 28 -11 10 -20 23 -20 29 0
16 -157 174 -204 205 -48 32 -146 89 -166 97 -8 3 -23 10 -32 15 -10 5 -29 9
-42 9 -14 0 -27 4 -30 9 -3 5 -25 12 -48 16 -71 11 -312 15 -333 5z m250 -47
c32 -3 74 -14 92 -24 19 -11 40 -19 47 -19 22 0 119 -42 141 -61 11 -9 35 -24
54 -34 39 -20 42 -22 113 -90 88 -83 178 -198 178 -224 0 -6 4 -11 9 -11 5 0
11 -8 14 -17 3 -10 12 -29 20 -43 27 -47 81 -212 93 -285 10 -61 8 -273 -3
-335 -15 -78 -70 -240 -93 -272 -11 -15 -20 -30 -20 -33 0 -20 -109 -160 -166
-216 -87 -83 -135 -116 -249 -172 -56 -28 -153 -53 -262 -68 -128 -18 -403 36
-470 92 -10 8 -31 21 -48 29 -29 14 -61 38 -147 110 -44 37 -134 146 -162 195
-9 17 -25 44 -36 60 -10 17 -19 38 -19 47 -1 9 -4 18 -8 20 -5 2 -24 48 -43
103 l-35 100 0 220 c0 208 1 222 23 264 12 25 22 51 22 58 0 7 5 22 10 33 6
11 15 29 20 40 6 11 10 27 10 35 0 8 5 15 10 15 6 0 10 5 10 10 0 24 116 177
174 229 16 14 38 35 50 47 21 20 99 74 126 87 8 4 29 16 45 26 17 11 38 20 48
20 9 1 25 5 35 10 49 26 129 51 166 52 22 1 55 5 71 10 17 4 50 5 75 3 25 -3
72 -8 105 -11z"/>
<path d="M11100 2181 c-81 -11 -226 -67 -295 -114 -93 -62 -194 -162 -257
-254 -32 -46 -58 -88 -58 -93 0 -6 -4 -18 -9 -28 -40 -79 -51 -107 -51 -127 0
-13 -4 -26 -9 -29 -31 -20 -31 -427 0 -461 5 -5 9 -19 9 -32 0 -13 4 -31 9
-41 5 -9 30 -60 55 -112 65 -138 180 -271 283 -330 15 -8 36 -23 47 -32 11
-10 25 -18 32 -18 7 0 29 -8 51 -19 100 -48 135 -56 283 -59 79 -2 153 1 165
6 11 6 36 15 55 22 35 12 63 23 110 44 68 29 260 175 260 197 0 6 12 22 26 36
46 46 144 209 144 240 0 7 4 21 9 31 25 50 45 126 53 202 17 168 -4 314 -72
475 -13 31 -19 43 -73 135 -32 55 -197 230 -217 230 -6 0 -28 13 -48 28 -36
28 -55 37 -172 81 -62 23 -235 35 -330 22z m254 -60 c17 -5 51 -15 76 -22 25
-7 56 -20 70 -29 14 -9 39 -22 55 -30 17 -8 32 -17 35 -20 3 -3 32 -27 65 -54
63 -52 144 -135 145 -149 0 -4 8 -16 18 -27 9 -10 34 -54 55 -97 21 -43 43
-86 48 -95 5 -10 9 -28 9 -41 0 -13 4 -27 9 -33 16 -16 23 -95 23 -234 0 -139
-7 -218 -23 -234 -5 -6 -9 -18 -9 -28 0 -10 -4 -26 -9 -36 -5 -9 -20 -40 -35
-68 -14 -28 -32 -62 -38 -76 -30 -57 -122 -156 -180 -196 -21 -13 -38 -28 -38
-32 0 -6 -36 -25 -161 -84 -31 -14 -68 -26 -82 -26 -14 0 -29 -4 -32 -10 -4
-6 -65 -10 -150 -10 -85 0 -146 4 -150 10 -3 6 -19 10 -35 10 -16 0 -44 8 -62
18 -18 10 -49 24 -68 32 -109 44 -283 215 -340 335 -8 17 -19 37 -25 45 -14
19 -47 120 -75 232 -24 95 -24 206 0 298 6 25 14 59 17 75 3 17 9 35 12 40 4
6 14 30 21 55 7 25 19 52 25 60 6 8 17 29 25 45 8 17 23 39 33 49 9 11 17 24
17 29 0 15 179 187 195 187 7 0 15 3 17 8 2 4 35 22 73 41 39 19 78 38 87 43
10 4 28 8 40 8 13 0 30 5 38 10 19 12 264 13 304 1z"/>
<path d="M11155 1526 c-17 -6 -39 -18 -50 -26 -32 -23 -80 -91 -93 -131 -15
-43 -16 -126 -2 -134 6 -3 10 -14 10 -24 0 -26 83 -107 116 -114 16 -3 40 -9
54 -12 34 -9 132 36 153 69 56 85 74 154 59 227 -11 54 -70 116 -133 139 -60
22 -71 23 -114 6z m135 -91 c23 -14 43 -34 46 -43 3 -9 10 -25 15 -34 13 -25
11 -104 -3 -131 -25 -44 -41 -57 -92 -71 -48 -14 -56 -14 -101 2 -58 21 -89
59 -99 122 -14 86 25 174 82 183 50 9 111 -2 152 -28z"/>
</g>
</svg>
